<?xml version="1.0" standalone="no"?>
<!DOCTYPE svg PUBLIC "-//W3C//DTD SVG 20010904//EN"
 "http://www.w3.org/TR/2001/REC-SVG-20010904/DTD/svg10.dtd">
<svg version="1.0" xmlns="http://www.w3.org/2000/svg"
 width="300.000000pt" height="300.000000pt" viewBox="0 0 300.000000 300.000000"
 preserveAspectRatio="xMidYMid meet">
<metadata>
Created by potrace 1.11, written by Peter Selinger 2001-2013
</metadata>
<g transform="translate(0.000000,300.000000) scale(0.100000,-0.100000)"
fill="#000000" stroke="none">
<path d="M1310 2250 c-19 -19 -24 -36 -20 -73 1 -11 -11 -23 -34 -32 -20 -9
-36 -21 -36 -29 0 -7 -10 -18 -22 -24 -75 -39 -170 -136 -210 -216 -54 -107
-67 -173 -64 -309 4 -143 27 -256 114 -556 40 -138 66 -211 81 -227 39 -41
114 -59 243 -59 l116 0 5 -35 c8 -58 5 -323 -4 -346 -4 -12 -19 -33 -33 -47
-14 -15 -26 -35 -26 -46 0 -15 -16 -25 -70 -46 -39 -15 -78 -34 -87 -43 -25
-25 -53 -93 -53 -129 l0 -33 414 0 c228 0 417 3 420 8 7 12 -31 110 -56 141
-21 27 -74 58 -108 65 -8 2 -31 6 -50 10 -19 4 -44 8 -55 10 -14 2 -21 12 -23
34 -2 18 -9 32 -15 32 -9 0 -12 31 -12 108 -1 109 -10 234 -24 309 -8 41 -8
42 23 48 46 10 139 36 156 45 8 4 41 15 72 24 76 22 89 35 77 83 -5 21 -11 54
-14 73 -2 20 -17 90 -34 155 -70 281 -76 316 -76 461 1 91 3 105 25 138 32 48
77 67 175 73 44 2 83 7 87 11 19 19 8 103 -27 203 -33 95 -55 122 -133 159
-120 58 -401 60 -584 4 -12 -4 -18 0 -18 11 0 25 -46 65 -75 65 -14 0 -34 -9
-45 -20z"/>
</g>
</svg>
